<svg id="Logo" xmlns="http://www.w3.org/2000/svg" xmlns:xlink="http://www.w3.org/1999/xlink" width="28.72" height="42.097" viewBox="0 0 28.72 42.097">
  <defs>
    <clipPath id="clip-path">
      <rect id="Rectangle_17309" data-name="Rectangle 17309" width="28.72" height="42.097" fill="none"/>
    </clipPath>
    <linearGradient id="linear-gradient" x1="0.5" x2="0.5" y2="1" gradientUnits="objectBoundingBox">
      <stop offset="0" stop-color="#49bcab"/>
      <stop offset="1" stop-color="#c6fb81"/>
    </linearGradient>
  </defs>
  <g id="Group_37456" data-name="Group 37456">
    <g id="Group_37455" data-name="Group 37455" clip-path="url(#clip-path)">
      <path id="Path_30146" data-name="Path 30146" d="M3.155,459.781l-.5,4.65H0l.747-7.013,12.785.021-.25,2.343Zm-1.877-5.412.02-.055A3.161,3.161,0,0,1,2.187,453a3.578,3.578,0,0,1,1.486-.727,9.3,9.3,0,0,1,2.226-.227h8.248l-.248,2.325Z" transform="translate(0 -422.334)" fill="#fff" fill-rule="evenodd"/>
      <path id="Path_30147" data-name="Path 30147" d="M316.422,456.694l.624-4.65h-2.66l-1.048,9.484a2.153,2.153,0,0,0,1.793,2.676,8.616,8.616,0,0,0,2.171.227h3.234l.238-2.325h-5.051l.41-3.053,2.977,0,.241-2.355Z" transform="translate(-294.684 -422.334)" fill="#fff" fill-rule="evenodd"/>
      <path id="Path_30148" data-name="Path 30148" d="M30.722,6.152a1.586,1.586,0,0,0-.4-1.108,1.814,1.814,0,0,0-1.028-.59,7.668,7.668,0,0,0-1.735-.164H19.745a8.993,8.993,0,0,0-1.886.164,2.562,2.562,0,0,0-1.97,1.7,5.582,5.582,0,0,0-.435,1.73c-.14,2.57-.473,5.389-.568,7.877a2.381,2.381,0,0,0,.266,1.337,1.554,1.554,0,0,0,1,.671,8.354,8.354,0,0,0,1.939.18l1.257.006,10.547.089,7.98,8.923L26.62,22.107H17.165a16.9,16.9,0,0,1-3.938-.377A4.512,4.512,0,0,1,10.9,20.469a3.981,3.981,0,0,1-.957-2.325,23.248,23.248,0,0,1,.206-3.57l.516-6.91a10.7,10.7,0,0,1,1-3.57A6.216,6.216,0,0,1,13.414,1.72,6.937,6.937,0,0,1,16.177.409,17.257,17.257,0,0,1,20.248,0h8.226a15.52,15.52,0,0,1,3.933.409,4.617,4.617,0,0,1,2.319,1.31,4.078,4.078,0,0,1,.949,2.374,18.954,18.954,0,0,1-.206,3.57L34.23,19.241l-4.088-4.711Z" transform="translate(-9.325 1)" fill-rule="evenodd" fill="url(#linear-gradient)"/>
      <path id="Path_30149" data-name="Path 30149" d="M446.272,618.644l.266-2.316h1.925l-.266,2.316Z" transform="translate(-419.743 -576.547)" fill-rule="evenodd" fill="url(#linear-gradient)"/>
      <path id="Path_30863" data-name="Path 30863" d="M257.7,454.391l.258-2.346h2.761Z" transform="translate(-242.435 -422.334)" fill-rule="evenodd" fill="url(#linear-gradient)"/>
      <path id="Path_30864" data-name="Path 30864" d="M240.714,503.513l-1.015,9.232h2.761l1.014-9.232Z" transform="translate(-225.516 -470.648)" fill="#fff"/>
    </g>
  </g>
</svg>
